<?xml version="1.0" encoding="iso-8859-1"?>
<!-- Generator: Adobe Illustrator 19.0.0, SVG Export Plug-In . SVG Version: 6.00 Build 0)  -->
<svg version="1.1" id="Layer_1" xmlns="http://www.w3.org/2000/svg" xmlns:xlink="http://www.w3.org/1999/xlink" x="0px" y="0px"
	 viewBox="0 0 461.241 461.241" style="enable-background:new 0 0 461.241 461.241;" xml:space="preserve">
<path style="fill:#E5C400;" d="M170.3,193.523c-63.212-24.946-89.854-71.038-101.074-105.311
	c-12.078-36.895-9.286-67.745-9.161-69.04l0.871-9.041h74.375v20H79.726c0.099,10.976,1.485,30.743,8.742,52.572
	c14.479,43.552,44.482,74.578,89.174,92.216L170.3,193.523z"/>
<path style="opacity:0.4;fill:#5B5B5F;enable-background:new    ;" d="M170.3,193.523c-63.212-24.946-89.854-71.038-101.074-105.311
	c-12.078-36.895-9.286-67.745-9.161-69.04l0.871-9.041h74.375v20H79.726c0.099,10.976,1.485,30.743,8.742,52.572
	c14.479,43.552,44.482,74.578,89.174,92.216L170.3,193.523z"/>
<rect x="213.658" y="214.612" style="fill:#E5C400;" width="33.926" height="85.673"/>
<path style="fill:#E5C400;" d="M316.344,334.479H144.897v-7.395c0-14.8,11.998-26.798,26.798-26.798h117.851
	c14.8,0,26.798,11.998,26.798,26.798L316.344,334.479L316.344,334.479z"/>
<rect x="123.228" y="334.479" style="fill:#D8D9DD;" width="214.785" height="105.905"/>
<rect x="148.441" y="359.692" style="fill:#FFFFFF;" width="164.358" height="55.475"/>
<rect x="111.805" y="435.566" style="fill:#59595A;" width="237.63" height="25.675"/>
<rect x="213.658" y="214.612" style="opacity:0.4;fill:#5B5B5F;enable-background:new    ;" width="33.926" height="22.604"/>
<path style="fill:#E5C400;" d="M401.176,19.173l-0.871-9.041h-54.179c0.072-3.485,0.11-6.874,0.11-10.132
	C298.438,0,230.62,0,230.62,0s-67.818,0-115.615,0c0,77.692,19.344,224.599,115.615,224.599c29.033,0,51.06-13.373,67.68-34.167
	c57.929-25.52,82.942-69.313,93.715-102.22C404.093,51.318,401.301,20.468,401.176,19.173z M373.008,81.99
	c-10.267,31.362-28.544,56.266-54.516,74.405c17.133-38.413,24.48-86.494,26.832-126.264h36.21
	C381.449,40.945,380.101,60.323,373.008,81.99z"/>
<path style="opacity:0.4;fill:#5B5B5F;enable-background:new    ;" d="M316.344,334.479H144.897v-7.395
	c0-14.8,11.998-26.798,26.798-26.798h117.851c14.8,0,26.798,11.998,26.798,26.798L316.344,334.479L316.344,334.479z"/>
<path style="opacity:0.3;fill:#5B5B5F;enable-background:new    ;" d="M401.176,19.173l-0.871-9.041h-54.179
	c0.072-3.485,0.11-6.874,0.11-10.132C298.438,0,230.62,0,230.62,0v461.241h118.815v-25.675h-11.423V334.479h-21.669v-7.395
	c0-14.8-11.998-26.798-26.798-26.798h-41.963v-77.32c20.863-4.153,37.5-15.997,50.717-32.533
	c57.929-25.52,82.942-69.313,93.715-102.22C404.093,51.318,401.301,20.468,401.176,19.173z M373.008,81.99
	c-10.267,31.362-28.544,56.266-54.516,74.405c17.133-38.413,24.48-86.494,26.832-126.264h36.21
	C381.449,40.945,380.101,60.323,373.008,81.99z"/>
<g>
</g>
<g>
</g>
<g>
</g>
<g>
</g>
<g>
</g>
<g>
</g>
<g>
</g>
<g>
</g>
<g>
</g>
<g>
</g>
<g>
</g>
<g>
</g>
<g>
</g>
<g>
</g>
<g>
</g>
</svg>
